<?xml version="1.0" encoding="iso-8859-1"?>
<!-- Generator: Adobe Illustrator 16.0.0, SVG Export Plug-In . SVG Version: 6.00 Build 0)  -->
<!DOCTYPE svg PUBLIC "-//W3C//DTD SVG 1.1//EN" "http://www.w3.org/Graphics/SVG/1.1/DTD/svg11.dtd">
<svg xmlns="http://www.w3.org/2000/svg" xmlns:xlink="http://www.w3.org/1999/xlink" version="1.1" id="Capa_1" x="0px" y="0px" width="512px" height="512px" viewBox="0 0 89.349 89.35" style="enable-background:new 0 0 89.349 89.35;" xml:space="preserve">
<g>
	<g>
		<path d="M74.825,28.813c0.345-4.989-1.483-8.574-3.981-12.293c-1.313-1.953-1.694-3.96-0.897-6.351    c0.591-1.773,0.478-3.78,0.677-5.683c-0.412-0.199-0.824-0.398-1.236-0.597c-1.721,1.646-3.442,3.293-5.527,5.286    c-0.675-2.269-1.215-4.086-2.041-6.862c-1.842,2.833-3.201,4.923-4.646,7.146c-0.795-0.072-1.567-0.083-2.324-0.043L54.819,9    l4.5-9c0,0-37.167,1.667-36.5,25.333C23.486,49,7.152,52.13,7.152,52.13s7.833,9.729,15.167,7.8    c0.496-0.13,0.974-0.256,1.438-0.383c7.744,14.778,20.475,25.735,35.547,29.803c0.062-0.178,0.125-0.354,0.207-0.537    c2.818-6.418,2.595-12.461-1.866-18.392C51.312,62,50.554,52.188,51.898,42.106c0.17-1.276,1.072-2.454,1.595-3.587    c2.384,1.174,4.363,1.831,5.97,3.001c4.146,3.022,8.908,5.477,10.404,11.116c0.317,1.197,1.635,2.589,2.805,3.007    c2.707,0.965,6.549-0.479,7.807-2.772c1.518-2.765,2.763-5.349,0.412-8.738C77.727,39.573,74.433,34.472,74.825,28.813z" fill="#5e3207"/>
	</g>
</g>
<g>
</g>
<g>
</g>
<g>
</g>
<g>
</g>
<g>
</g>
<g>
</g>
<g>
</g>
<g>
</g>
<g>
</g>
<g>
</g>
<g>
</g>
<g>
</g>
<g>
</g>
<g>
</g>
<g>
</g>
</svg>
