<?xml version="1.0" encoding="iso-8859-1"?>
<!-- Generator: Adobe Illustrator 18.0.0, SVG Export Plug-In . SVG Version: 6.00 Build 0)  -->
<!DOCTYPE svg PUBLIC "-//W3C//DTD SVG 1.1//EN" "http://www.w3.org/Graphics/SVG/1.1/DTD/svg11.dtd">
<svg version="1.1" id="Capa_1" xmlns="http://www.w3.org/2000/svg" xmlns:xlink="http://www.w3.org/1999/xlink" x="0px" y="0px"
	 viewBox="0 0 422.234 422.234" style="enable-background:new 0 0 422.234 422.234;" xml:space="preserve">
<g>
	<path style="fill:#E77200;" d="M112.376,403.266H10.314V359.42c0-28.184,22.847-51.031,51.031-51.031h0
		c28.184,0,51.031,22.847,51.031,51.031V403.266z"/>
	<path style="fill:#88C9B3;" d="M262.148,403.266H160.086V359.42c0-28.184,22.847-51.031,51.031-51.031h0
		c28.184,0,51.031,22.847,51.031,51.031V403.266z"/>
	<path style="fill:#7C6655;" d="M411.92,403.266H309.858V359.42c0-28.184,22.847-51.031,51.031-51.031h0
		c28.184,0,51.031,22.847,51.031,51.031V403.266z"/>
	<path style="fill:#88C9B3;" d="M311.015,162.773L362.2,195.38v-32.607h46.121c7.684,0,13.913-6.229,13.913-13.913V32.88
		c0-7.684-6.229-13.913-13.913-13.913H13.913C6.229,18.967,0,25.196,0,32.88l0,115.98c0,7.684,6.229,13.913,13.913,13.913h44.903
		v32.607L110,162.773h77.815v32.607L239,162.773H311.015z"/>
	<circle style="fill:#FCF4DE;" cx="61.345" cy="274.132" r="48.257"/>
	<g>
		<path style="fill:#7C6655;" d="M41.35,277.886c-0.49,0-0.99-0.05-1.47-0.14c-0.48-0.1-0.95-0.24-1.4-0.43
			c-0.46-0.19-0.89-0.42-1.3-0.69c-0.41-0.27-0.79-0.59-1.14-0.93c-1.4-1.4-2.2-3.33-2.2-5.31c0-0.49,0.05-0.98,0.15-1.46
			c0.1-0.48,0.24-0.95,0.43-1.41c0.19-0.45,0.42-0.88,0.69-1.29s0.58-0.8,0.93-1.14c0.35-0.35,0.73-0.66,1.14-0.93
			c0.41-0.27,0.84-0.51,1.3-0.69c0.45-0.19,0.92-0.33,1.4-0.43c2.44-0.49,5.03,0.31,6.77,2.05c0.34,0.34,0.66,0.73,0.93,1.14
			s0.5,0.84,0.69,1.29c0.19,0.46,0.33,0.93,0.43,1.41c0.09,0.48,0.14,0.97,0.14,1.46c0,1.98-0.8,3.91-2.19,5.31
			C45.25,277.086,43.32,277.886,41.35,277.886z"/>
		<path style="fill:#7C6655;" d="M81.34,277.886c-0.48,0-0.98-0.05-1.46-0.14c-0.48-0.1-0.95-0.24-1.4-0.43
			c-0.46-0.19-0.89-0.42-1.3-0.69c-0.41-0.27-0.79-0.59-1.14-0.93c-0.34-0.35-0.66-0.73-0.93-1.14c-0.27-0.41-0.5-0.85-0.69-1.3
			c-0.19-0.45-0.33-0.92-0.43-1.4c-0.1-0.48-0.14-0.98-0.14-1.47c0-0.48,0.04-0.98,0.14-1.46c0.1-0.48,0.24-0.95,0.43-1.41
			c0.19-0.45,0.42-0.88,0.69-1.29s0.59-0.8,0.93-1.14c0.35-0.35,0.73-0.66,1.14-0.93c0.41-0.27,0.84-0.51,1.3-0.69
			c0.45-0.19,0.92-0.33,1.4-0.43c0.97-0.2,1.96-0.2,2.93,0c0.48,0.1,0.95,0.24,1.4,0.43c0.46,0.18,0.89,0.42,1.3,0.69
			c0.41,0.27,0.79,0.58,1.14,0.93c0.34,0.34,0.66,0.73,0.93,1.14s0.5,0.84,0.69,1.29c0.19,0.46,0.33,0.93,0.43,1.41
			c0.1,0.48,0.15,0.98,0.15,1.46c0,1.98-0.81,3.91-2.2,5.31c-0.35,0.34-0.73,0.66-1.14,0.93c-0.41,0.27-0.84,0.5-1.3,0.69
			c-0.45,0.19-0.92,0.33-1.4,0.43C82.33,277.836,81.83,277.886,81.34,277.886z"/>
	</g>
	<circle style="fill:#FCF4DE;" cx="211.117" cy="274.132" r="48.257"/>
	<g>
		<path style="fill:#7C6655;" d="M191.12,277.886c-0.49,0-0.99-0.05-1.47-0.14c-0.48-0.1-0.95-0.24-1.4-0.43
			c-0.45-0.19-0.89-0.42-1.3-0.69c-0.41-0.27-0.79-0.59-1.14-0.93c-0.34-0.35-0.66-0.73-0.93-1.14c-0.27-0.41-0.5-0.85-0.69-1.3
			c-0.19-0.45-0.33-0.92-0.43-1.4c-0.09-0.49-0.14-0.98-0.14-1.47c0-0.49,0.05-0.98,0.14-1.46c0.1-0.48,0.24-0.95,0.43-1.41
			c0.19-0.45,0.42-0.88,0.69-1.29s0.59-0.8,0.93-1.14c0.35-0.35,0.73-0.66,1.14-0.93c0.41-0.27,0.85-0.5,1.3-0.69
			c0.45-0.19,0.92-0.33,1.4-0.43c2.44-0.49,5.03,0.31,6.77,2.05c0.35,0.34,0.66,0.73,0.93,1.14s0.51,0.84,0.69,1.29
			c0.19,0.46,0.33,0.93,0.43,1.41c0.1,0.48,0.15,0.97,0.15,1.46c0,1.98-0.8,3.91-2.2,5.31
			C195.02,277.086,193.09,277.886,191.12,277.886z"/>
		<path style="fill:#7C6655;" d="M231.12,277.886c-0.49,0-0.99-0.05-1.47-0.14c-0.48-0.1-0.95-0.24-1.4-0.43
			c-0.46-0.19-0.89-0.42-1.3-0.69c-0.41-0.27-0.79-0.59-1.14-0.93c-0.34-0.35-0.66-0.73-0.93-1.14c-0.27-0.41-0.5-0.85-0.69-1.3
			c-0.19-0.45-0.33-0.92-0.43-1.4c-0.09-0.49-0.14-0.98-0.14-1.47c0-0.48,0.05-0.98,0.14-1.46c0.1-0.48,0.24-0.95,0.43-1.41
			c0.19-0.45,0.42-0.88,0.69-1.29s0.59-0.79,0.93-1.14c0.35-0.35,0.73-0.66,1.14-0.93c0.41-0.27,0.84-0.5,1.3-0.69
			c0.45-0.19,0.92-0.33,1.4-0.43c0.97-0.19,1.96-0.19,2.93,0c0.48,0.1,0.95,0.24,1.41,0.43c0.45,0.19,0.88,0.42,1.29,0.69
			c0.41,0.27,0.8,0.58,1.14,0.93c0.35,0.35,0.66,0.73,0.93,1.14s0.5,0.84,0.69,1.29c0.19,0.46,0.33,0.93,0.43,1.41
			c0.1,0.48,0.15,0.98,0.15,1.46c0,0.49-0.05,0.98-0.15,1.47c-0.1,0.48-0.24,0.95-0.43,1.4c-0.19,0.45-0.42,0.89-0.69,1.3
			c-0.27,0.41-0.58,0.79-0.93,1.14c-0.34,0.34-0.73,0.66-1.14,0.93c-0.41,0.27-0.84,0.5-1.29,0.69c-0.46,0.19-0.93,0.33-1.41,0.43
			C232.1,277.836,231.61,277.886,231.12,277.886z"/>
	</g>
	<circle style="fill:#FCF4DE;" cx="360.889" cy="274.132" r="48.257"/>
	<g>
		<path style="fill:#7C6655;" d="M340.89,277.886c-0.49,0-0.98-0.05-1.47-0.14c-0.47-0.1-0.95-0.24-1.4-0.43
			c-0.45-0.19-0.89-0.42-1.29-0.69c-0.41-0.27-0.8-0.59-1.14-0.93c-1.4-1.4-2.2-3.33-2.2-5.31c0-0.49,0.05-0.98,0.15-1.46
			c0.09-0.48,0.24-0.95,0.42-1.41c0.19-0.45,0.42-0.88,0.69-1.29c0.28-0.41,0.59-0.8,0.94-1.14c0.34-0.35,0.73-0.66,1.14-0.93
			c0.4-0.27,0.84-0.5,1.29-0.69c0.45-0.19,0.93-0.33,1.4-0.43c0.97-0.19,1.97-0.19,2.93,0c0.48,0.1,0.95,0.24,1.41,0.43
			c0.45,0.19,0.89,0.42,1.29,0.69c0.41,0.27,0.8,0.58,1.14,0.93c0.35,0.34,0.66,0.73,0.93,1.14s0.51,0.84,0.69,1.29
			c0.19,0.46,0.34,0.93,0.43,1.41c0.1,0.48,0.15,0.97,0.15,1.46c0,1.98-0.8,3.91-2.2,5.31c-0.34,0.34-0.73,0.66-1.14,0.93
			c-0.4,0.27-0.84,0.5-1.29,0.69c-0.46,0.19-0.93,0.33-1.41,0.43C341.87,277.836,341.38,277.886,340.89,277.886z"/>
		<path style="fill:#7C6655;" d="M380.89,277.886c-1.98,0-3.91-0.8-5.31-2.19c-0.34-0.35-0.65-0.73-0.93-1.14
			c-0.27-0.41-0.5-0.85-0.69-1.3c-0.18-0.45-0.33-0.92-0.42-1.4c-0.1-0.49-0.15-0.98-0.15-1.47c0-0.49,0.05-0.98,0.15-1.46
			c0.09-0.48,0.24-0.95,0.42-1.41c0.19-0.45,0.42-0.88,0.69-1.29c0.28-0.41,0.59-0.8,0.93-1.14c1.75-1.74,4.33-2.54,6.78-2.05
			c0.47,0.1,0.95,0.24,1.4,0.43c0.45,0.18,0.89,0.42,1.29,0.69c0.41,0.27,0.8,0.58,1.14,0.93c0.35,0.34,0.66,0.73,0.94,1.14
			c0.27,0.41,0.5,0.84,0.69,1.29c0.18,0.46,0.33,0.93,0.42,1.41c0.1,0.48,0.15,0.97,0.15,1.46c0,0.49-0.05,0.98-0.15,1.47
			c-0.09,0.48-0.24,0.95-0.42,1.4c-0.19,0.45-0.42,0.89-0.69,1.3c-0.28,0.41-0.59,0.79-0.94,1.14c-0.34,0.34-0.73,0.65-1.14,0.93
			c-0.4,0.27-0.84,0.5-1.29,0.69c-0.45,0.19-0.93,0.33-1.4,0.43C381.87,277.836,381.38,277.886,380.89,277.886z"/>
	</g>
	<rect x="46.561" y="66.386" style="fill:#7C6655;" width="329.111" height="15"/>
	<rect x="46.561" y="102.384" style="fill:#7C6655;" width="329.111" height="15"/>
</g>
<g>
</g>
<g>
</g>
<g>
</g>
<g>
</g>
<g>
</g>
<g>
</g>
<g>
</g>
<g>
</g>
<g>
</g>
<g>
</g>
<g>
</g>
<g>
</g>
<g>
</g>
<g>
</g>
<g>
</g>
</svg>
